<svg width="1000" height="1000" viewBox="0 0 1000 1000" fill="none" xmlns="http://www.w3.org/2000/svg">
<rect width="1000" height="1000" fill="#E5E5E5"/>
<rect width="1000" height="1000" fill="white"/>
<path d="M422 557.009V718.203C422 723.725 417.523 728.203 412 728.203H323C317.477 728.203 313 723.725 313 718.203V630.04C313 627.57 312.11 625.203 310.424 623.397C291.673 603.309 247.676 562.446 230.94 546.102C229.042 544.249 228 541.748 227.998 539.096C227.952 484.574 227.037 363.511 227.001 313.177C227 311.202 227.588 309.293 228.737 307.687C252.325 274.733 274.673 292.342 286.958 307.576C288.316 309.26 289 311.351 289 313.515V407.875C289 413.131 284.868 417.36 279.758 418.589C243.826 427.232 244.986 469.57 257.941 479.481C258.62 480.001 259.302 480.512 259.9 481.123L300.527 522.652C302.505 524.675 305.687 524.89 307.921 523.153C310.599 521.07 310.806 517.096 308.358 514.746L264.964 473.088C263.678 471.854 262.72 470.255 262.291 468.525C250.437 420.748 294.949 422.413 306.537 436.605C306.859 436.999 307.167 437.369 307.527 437.729C339.885 470.102 401.702 533.229 418.454 549.009C420.665 551.092 422 553.971 422 557.009Z" fill="#F72121"/>
<path d="M573 557.009V718.203C573 723.725 577.477 728.203 583 728.203H672C677.523 728.203 682 723.725 682 718.203V630.04C682 627.57 682.89 625.203 684.576 623.397C703.327 603.309 747.324 562.446 764.06 546.102C765.958 544.249 767 541.748 767.002 539.096C767.048 484.574 767.963 363.511 767.999 313.177C768 311.202 767.412 309.293 766.263 307.687C742.675 274.733 720.327 292.342 708.042 307.576C706.684 309.26 706 311.351 706 313.515V407.875C706 413.131 710.132 417.36 715.242 418.589C751.174 427.232 750.014 469.57 737.059 479.481C736.38 480.001 735.698 480.512 735.1 481.123L694.473 522.652C692.495 524.675 689.313 524.89 687.079 523.153C684.401 521.07 684.194 517.096 686.642 514.746L730.036 473.088C731.322 471.854 732.28 470.255 732.709 468.525C744.563 420.748 700.051 422.413 688.463 436.605C688.141 436.999 687.833 437.369 687.473 437.729C655.115 470.102 593.298 533.229 576.546 549.009C574.335 551.092 573 553.971 573 557.009Z" fill="#3EEE12"/>
<path d="M623.745 317.877L503.484 450.747C501.488 452.952 498.02 452.938 496.043 450.717L377.748 317.877C365.748 302.877 345.748 258.878 385.748 221.878C399.326 209.319 457.605 190.226 495.805 252.971C497.718 256.114 502.277 256.431 504.515 253.511C535.399 213.205 563.054 196.318 612.175 221.583C612.546 221.775 612.911 222.026 613.221 222.306C650.252 255.829 639.345 296.966 623.745 317.877Z" fill="#FDF648"/>
<path d="M93.761 888.144H115.841C117.057 886.608 117.953 884.624 118.529 882.192C119.169 879.76 119.521 878.448 119.585 878.256L123.713 878.832L121.121 894H74.753L75.329 890.16C79.297 889.712 82.401 888.816 84.641 887.472V835.632C82.337 834.352 79.041 833.456 74.753 832.944L75.233 829.104H103.649L103.073 832.944C99.105 833.392 96.001 834.288 93.761 835.632V888.144ZM138.536 868.944V870.48C138.536 878.416 139.592 883.76 141.704 886.512C143.688 889.072 146.92 890.352 151.4 890.352C155.944 890.352 159.816 888.464 163.016 884.688L166.28 887.952C162.376 892.496 157.128 894.768 150.536 894.768C142.792 894.768 137.256 892.624 133.928 888.336C130.664 884.048 129.032 877.904 129.032 869.904C129.032 861.904 130.824 855.728 134.408 851.376C137.992 846.96 143.176 844.752 149.96 844.752C156.744 844.752 161.48 846.544 164.168 850.128C166.856 853.712 168.296 859.056 168.488 866.16L166.376 868.944H138.536ZM149.768 848.976C142.472 848.976 138.728 854.352 138.536 865.104L159.176 864.336C159.176 858.96 158.504 855.056 157.16 852.624C155.816 850.192 153.352 848.976 149.768 848.976ZM221.601 894.48C214.049 894.48 208.545 892.528 205.089 888.624C201.633 884.656 199.905 878.416 199.905 869.904C199.905 853.328 207.297 845.04 222.081 845.04C226.817 845.04 230.657 846.064 233.601 848.112C236.545 850.096 238.017 852.72 238.017 855.984C238.017 857.648 237.473 859.088 236.385 860.304C235.297 861.52 234.049 862.128 232.641 862.128C231.297 862.128 230.113 861.776 229.089 861.072C228.065 860.368 227.425 859.472 227.169 858.384C228.065 856.976 228.513 855.568 228.513 854.16C228.513 852.752 227.905 851.504 226.689 850.416C225.537 849.328 224.001 848.784 222.081 848.784C217.729 848.784 214.529 850.48 212.481 853.872C210.497 857.2 209.505 862.544 209.505 869.904C209.505 877.2 210.433 882.448 212.289 885.648C214.209 888.784 217.313 890.352 221.601 890.352C227.297 890.352 231.265 887.312 233.505 881.232L237.729 882.672C236.577 886.32 234.561 889.2 231.681 891.312C228.801 893.424 225.441 894.48 221.601 894.48ZM288.105 868.944V870.48C288.105 878.416 289.161 883.76 291.273 886.512C293.257 889.072 296.489 890.352 300.969 890.352C305.513 890.352 309.385 888.464 312.585 884.688L315.849 887.952C311.945 892.496 306.697 894.768 300.105 894.768C292.169 894.768 286.441 892.368 282.921 887.568C279.273 892.368 273.833 894.768 266.601 894.768C259.369 894.768 253.929 892.656 250.281 888.432C246.697 884.144 244.905 877.936 244.905 869.808C244.905 861.616 246.697 855.408 250.281 851.184C253.929 846.896 259.433 844.752 266.793 844.752C274.153 844.752 279.625 847.28 283.209 852.336C286.857 847.28 292.169 844.752 299.145 844.752C306.185 844.752 311.049 846.544 313.737 850.128C316.425 853.712 317.865 859.056 318.057 866.16L315.945 868.944H288.105ZM254.121 869.712C254.121 876.88 255.081 882.064 257.001 885.264C258.921 888.4 262.025 889.968 266.313 889.968C270.665 889.968 273.801 888.368 275.721 885.168C277.641 881.968 278.601 876.784 278.601 869.616C278.601 862.448 277.609 857.328 275.625 854.256C273.641 851.12 270.505 849.552 266.217 849.552C261.929 849.552 258.825 851.12 256.905 854.256C255.049 857.392 254.121 862.544 254.121 869.712ZM299.337 848.976C292.041 848.976 288.297 854.352 288.105 865.104L308.745 864.336C308.745 858.96 308.073 855.056 306.729 852.624C305.385 850.192 302.921 848.976 299.337 848.976ZM329.763 878.064V857.904C329.763 855.344 329.219 853.616 328.131 852.72C327.107 851.76 325.251 851.216 322.563 851.088L322.851 848.016C325.475 847.568 330.051 846.384 336.579 844.464L338.595 845.52V879.216C338.595 886.448 341.571 890.064 347.523 890.064C349.315 890.064 351.203 889.424 353.187 888.144C355.171 886.8 356.931 884.72 358.467 881.904V857.904C358.467 855.344 357.923 853.616 356.835 852.72C355.811 851.76 353.955 851.216 351.267 851.088L351.555 848.016C354.179 847.568 358.755 846.384 365.283 844.464L367.299 845.52V887.664C368.899 888.88 371.299 889.808 374.499 890.448L374.115 894H360.387L359.331 887.472C355.619 892.336 351.299 894.768 346.371 894.768C335.299 894.768 329.763 889.2 329.763 878.064ZM388.408 858.096C388.408 855.536 387.864 853.808 386.776 852.912C385.752 851.952 383.896 851.408 381.208 851.28L381.496 848.208C382.904 847.952 387.128 846.8 394.168 844.752L395.992 845.712L397.048 852.912C400.696 847.472 404.824 844.752 409.432 844.752C411.928 844.752 414.072 845.488 415.864 846.96C417.72 848.432 418.648 850.288 418.648 852.528C418.648 854.704 418.136 856.432 417.112 857.712C416.152 858.992 414.936 859.632 413.464 859.632C412.056 859.632 410.84 859.344 409.816 858.768C408.792 858.192 408.152 857.424 407.896 856.464C408.6 855.76 408.952 854.8 408.952 853.584C408.952 851.472 407.96 850.416 405.976 850.416C403.992 850.416 402.04 851.888 400.12 854.832C398.2 857.776 397.24 860.88 397.24 864.144V887.664C399.16 888.944 401.88 889.872 405.4 890.448L405.016 894H381.208L381.592 890.256C384.344 889.808 386.616 888.944 388.408 887.664V858.096ZM458.043 889.008C460.411 889.712 462.971 890.064 465.723 890.064C468.475 890.064 470.715 889.296 472.443 887.76C474.171 886.16 475.035 884.304 475.035 882.192C475.035 880.08 474.395 878.384 473.115 877.104C471.899 875.76 470.363 874.8 468.507 874.224C466.651 873.584 464.603 872.848 462.363 872.016C460.187 871.184 458.171 870.32 456.315 869.424C454.459 868.528 452.891 867.088 451.611 865.104C450.395 863.056 449.787 860.592 449.787 857.712C449.787 853.808 451.323 850.704 454.395 848.4C457.531 846.032 461.467 844.848 466.203 844.848C471.003 844.848 474.939 845.84 478.011 847.824C481.083 849.744 482.619 852.112 482.619 854.928C482.619 858.512 481.019 860.304 477.819 860.304C475.387 860.304 473.563 859.376 472.347 857.52C473.435 856.624 473.979 855.44 473.979 853.968C473.979 852.432 473.211 851.216 471.675 850.32C470.203 849.424 468.251 848.976 465.819 848.976C463.451 848.976 461.467 849.616 459.867 850.896C458.331 852.112 457.563 853.84 457.563 856.08C457.563 858.32 458.427 860.176 460.155 861.648C461.947 863.12 464.091 864.272 466.587 865.104C469.083 865.872 471.579 866.736 474.075 867.696C476.635 868.592 478.779 870.064 480.507 872.112C482.299 874.16 483.195 876.752 483.195 879.888C483.195 884.56 481.595 888.176 478.395 890.736C475.195 893.296 470.683 894.576 464.859 894.576C462.491 894.576 459.739 894.192 456.603 893.424C453.531 892.592 451.227 891.664 449.691 890.64V877.872L455.259 877.2C455.707 882.448 456.635 886.384 458.043 889.008ZM496.357 878.064V857.904C496.357 855.344 495.813 853.616 494.725 852.72C493.701 851.76 491.845 851.216 489.157 851.088L489.445 848.016C492.069 847.568 496.645 846.384 503.173 844.464L505.189 845.52V879.216C505.189 886.448 508.165 890.064 514.117 890.064C515.909 890.064 517.797 889.424 519.781 888.144C521.765 886.8 523.525 884.72 525.061 881.904V857.904C525.061 855.344 524.517 853.616 523.429 852.72C522.405 851.76 520.549 851.216 517.861 851.088L518.149 848.016C520.773 847.568 525.349 846.384 531.877 844.464L533.893 845.52V887.664C535.493 888.88 537.892 889.808 541.093 890.448L540.708 894H526.981L525.925 887.472C522.213 892.336 517.893 894.768 512.965 894.768C501.893 894.768 496.357 889.2 496.357 878.064ZM555.002 858.096C555.002 855.536 554.458 853.808 553.37 852.912C552.346 851.952 550.49 851.408 547.802 851.28L548.09 848.208C549.498 847.952 553.722 846.8 560.762 844.752L562.586 845.712L563.642 852.912C567.29 847.472 571.418 844.752 576.026 844.752C578.522 844.752 580.666 845.488 582.458 846.96C584.314 848.432 585.242 850.288 585.242 852.528C585.242 854.704 584.73 856.432 583.706 857.712C582.746 858.992 581.53 859.632 580.058 859.632C578.65 859.632 577.434 859.344 576.41 858.768C575.386 858.192 574.746 857.424 574.49 856.464C575.194 855.76 575.546 854.8 575.546 853.584C575.546 851.472 574.554 850.416 572.57 850.416C570.586 850.416 568.634 851.888 566.714 854.832C564.794 857.776 563.834 860.88 563.834 864.144V887.664C565.754 888.944 568.474 889.872 571.994 890.448L571.61 894H547.802L548.186 890.256C550.938 889.808 553.21 888.944 555.002 887.664V858.096ZM621.181 837.36C621.181 834.8 620.637 833.072 619.549 832.176C618.525 831.216 616.669 830.672 613.98 830.544L614.269 827.472C616.893 827.024 621.469 825.84 627.997 823.92L630.013 824.976V887.664C631.741 888.944 634.141 889.872 637.213 890.448L636.829 894H613.98L614.365 890.256C617.117 889.808 619.389 888.944 621.181 887.664V837.36ZM657.733 894.768C653.637 894.768 650.437 893.744 648.133 891.696C645.893 889.584 644.773 886.48 644.773 882.384C644.773 878.224 646.341 874.864 649.477 872.304C652.677 869.744 657.317 868.24 663.397 867.792L671.557 867.216V858.768C671.557 855.312 670.853 852.816 669.445 851.28C668.101 849.68 665.925 848.88 662.917 848.88C657.477 848.88 654.757 850.448 654.757 853.584C654.757 855.312 655.813 856.592 657.925 857.424C657.925 860.688 655.941 862.32 651.973 862.32C650.181 862.32 648.741 861.776 647.653 860.688C646.565 859.6 646.021 858.16 646.021 856.368C646.021 852.784 647.525 849.968 650.533 847.92C653.605 845.808 657.797 844.752 663.109 844.752C668.485 844.752 672.709 846 675.781 848.496C678.853 850.928 680.389 854.352 680.389 858.768V887.664C681.989 888.88 684.389 889.808 687.589 890.448L687.205 894H672.901L671.845 889.392C668.069 892.976 663.365 894.768 657.733 894.768ZM653.893 882C653.893 887.632 656.069 890.448 660.421 890.448C663.877 890.448 667.589 888.464 671.557 884.496V871.44L663.781 872.112C660.709 872.368 658.277 873.392 656.485 875.184C654.757 876.976 653.893 879.248 653.893 882ZM723.277 858.096C723.277 855.536 722.733 853.808 721.645 852.912C720.621 851.952 718.765 851.408 716.077 851.28L716.365 848.208C717.773 847.952 721.997 846.8 729.037 844.752L730.861 845.712L731.629 851.088C732.141 850.448 732.781 849.744 733.549 848.976C734.381 848.208 735.789 847.312 737.773 846.288C739.821 845.264 741.869 844.752 743.917 844.752C750.125 844.752 754.541 846.992 757.165 851.472C761.645 846.992 766.157 844.752 770.701 844.752C775.245 844.752 778.957 846 781.837 848.496C784.781 850.992 786.253 854.928 786.253 860.304V887.664C787.853 888.88 790.253 889.808 793.453 890.448L793.069 894H770.317L770.605 890.448C773.165 890.064 775.437 889.136 777.421 887.664V860.016C777.421 853.168 774.829 849.744 769.645 849.744C767.341 849.744 765.165 850.608 763.117 852.336C761.133 854 759.821 855.824 759.181 857.808V887.664C760.781 888.88 763.181 889.808 766.381 890.448L765.997 894H743.245L743.533 890.448C746.093 890.064 748.365 889.136 750.349 887.664V860.016C750.349 853.168 747.757 849.744 742.573 849.744C740.269 849.744 738.093 850.608 736.045 852.336C734.061 854 732.749 855.824 732.109 857.808V887.664C733.837 888.944 736.237 889.872 739.309 890.448L738.925 894H716.077L716.461 890.256C719.213 889.808 721.485 888.944 723.277 887.664V858.096ZM812.89 894.768C808.794 894.768 805.594 893.744 803.29 891.696C801.05 889.584 799.93 886.48 799.93 882.384C799.93 878.224 801.498 874.864 804.634 872.304C807.834 869.744 812.474 868.24 818.554 867.792L826.714 867.216V858.768C826.714 855.312 826.01 852.816 824.602 851.28C823.258 849.68 821.082 848.88 818.074 848.88C812.634 848.88 809.914 850.448 809.914 853.584C809.914 855.312 810.97 856.592 813.082 857.424C813.082 860.688 811.098 862.32 807.13 862.32C805.338 862.32 803.898 861.776 802.81 860.688C801.722 859.6 801.178 858.16 801.178 856.368C801.178 852.784 802.682 849.968 805.69 847.92C808.762 845.808 812.954 844.752 818.266 844.752C823.642 844.752 827.866 846 830.938 848.496C834.01 850.928 835.546 854.352 835.546 858.768V887.664C837.146 888.88 839.546 889.808 842.746 890.448L842.362 894H828.058L827.002 889.392C823.226 892.976 818.522 894.768 812.89 894.768ZM809.049 882C809.049 887.632 811.226 890.448 815.578 890.448C819.034 890.448 822.746 888.464 826.714 884.496V871.44L818.938 872.112C815.866 872.368 813.434 873.392 811.642 875.184C809.914 876.976 809.049 879.248 809.049 882ZM854.44 857.904C854.44 855.344 853.896 853.616 852.808 852.72C851.784 851.76 849.928 851.216 847.24 851.088L847.528 848.016C850.152 847.568 854.728 846.384 861.256 844.464L863.272 845.52V887.664C865 888.944 867.4 889.872 870.472 890.448L870.088 894H847.24L847.624 890.256C850.376 889.808 852.648 888.944 854.44 887.664V857.904ZM863.752 831.12C863.752 835.088 861.928 837.072 858.28 837.072C854.696 837.072 852.904 835.088 852.904 831.12C852.904 827.088 854.696 825.072 858.28 825.072C861.928 825.072 863.752 827.088 863.752 831.12ZM882.743 858.096C882.743 855.536 882.199 853.808 881.111 852.912C880.087 851.952 878.231 851.408 875.543 851.28L875.831 848.208C877.239 847.952 881.463 846.8 888.503 844.752L890.327 845.712L891.287 852.144C894.871 847.216 899.287 844.752 904.535 844.752C909.783 844.752 913.815 846.032 916.631 848.592C919.447 851.088 920.855 854.576 920.855 859.056V887.664C922.455 888.88 924.855 889.808 928.055 890.448L927.671 894H904.919L905.207 890.448C907.767 890.064 910.039 889.136 912.023 887.664V860.016C912.023 853.168 909.079 849.744 903.191 849.744C900.823 849.744 898.551 850.544 896.375 852.144C894.199 853.744 892.599 855.824 891.575 858.384V887.664C893.303 888.944 895.703 889.872 898.775 890.448L898.391 894H875.543L875.927 890.256C878.679 889.808 880.951 888.944 882.743 887.664V858.096Z" fill="#0B95C0"/>
</svg>
